<?xml version="1.0" encoding="UTF-8" standalone="no"?>
<!-- Created with Inkscape (http://www.inkscape.org/) -->

<svg
   width="54mm"
   height="54mm"
   viewBox="0 0 54 54"
   version="1.1"
   id="svg8"
   inkscape:version="1.3 (0e150ed6c4, 2023-07-21)"
   sodipodi:docname="lipers_in_slums_03_print_size.svg"
   inkscape:export-filename="D:\picture\original\2019\lipers_in_slums_03.png"
   inkscape:export-xdpi="600"
   inkscape:export-ydpi="600"
   xmlns:inkscape="http://www.inkscape.org/namespaces/inkscape"
   xmlns:sodipodi="http://sodipodi.sourceforge.net/DTD/sodipodi-0.dtd"
   xmlns:xlink="http://www.w3.org/1999/xlink"
   xmlns="http://www.w3.org/2000/svg"
   xmlns:svg="http://www.w3.org/2000/svg"
   xmlns:rdf="http://www.w3.org/1999/02/22-rdf-syntax-ns#"
   xmlns:cc="http://creativecommons.org/ns#"
   xmlns:dc="http://purl.org/dc/elements/1.1/">
  <defs
     id="defs2">
    <linearGradient
       inkscape:collect="always"
       id="linearGradient4571">
      <stop
         style="stop-color:#fffefe;stop-opacity:1;"
         offset="0"
         id="stop4567" />
      <stop
         style="stop-color:#fffefe;stop-opacity:0;"
         offset="1"
         id="stop4569" />
    </linearGradient>
    <linearGradient
       inkscape:collect="always"
       xlink:href="#linearGradient4571"
       id="linearGradient4573"
       x1="40.500149"
       y1="247.00002"
       x2="59.499851"
       y2="247.00002"
       gradientUnits="userSpaceOnUse"
       gradientTransform="translate(-1.9516471,2.5252478)" />
  </defs>
  <sodipodi:namedview
     id="base"
     pagecolor="#ffffff"
     bordercolor="#666666"
     borderopacity="1.0"
     inkscape:pageopacity="0.0"
     inkscape:pageshadow="2"
     inkscape:zoom="2.3563831"
     inkscape:cx="88.695257"
     inkscape:cy="101.00225"
     inkscape:document-units="mm"
     inkscape:current-layer="layer1"
     showgrid="true"
     inkscape:snap-grids="true"
     inkscape:snap-to-guides="false"
     inkscape:window-width="1920"
     inkscape:window-height="995"
     inkscape:window-x="-9"
     inkscape:window-y="-9"
     inkscape:window-maximized="1"
     fit-margin-top="0"
     fit-margin-left="0"
     fit-margin-right="0"
     fit-margin-bottom="0"
     inkscape:showpageshadow="2"
     inkscape:pagecheckerboard="0"
     inkscape:deskcolor="#d1d1d1">
    <inkscape:grid
       type="xygrid"
       id="grid3713"
       units="mm"
       spacingx="0.99999999"
       spacingy="0.99999999"
       snapvisiblegridlinesonly="true"
       originx="0"
       originy="0"
       visible="true" />
  </sodipodi:namedview>
  <metadata
     id="metadata5">
    <rdf:RDF>
      <cc:Work
         rdf:about="">
        <dc:format>image/svg+xml</dc:format>
        <dc:type
           rdf:resource="http://purl.org/dc/dcmitype/StillImage" />
        <dc:title />
      </cc:Work>
    </rdf:RDF>
  </metadata>
  <g
     inkscape:label="レイヤー 1"
     inkscape:groupmode="layer"
     id="layer1"
     transform="translate(0,-231.30229)">
    <g
       aria-label="Lipers In Sλums"
       transform="matrix(0.11024305,0,0,0.11024305,11.373621,226.84956)"
       style="stroke-width:2.4000001;font-style:normal;font-weight:normal;font-size:40px;line-height:1.25;font-family:sans-serif;letter-spacing:0px;word-spacing:0px;fill:#000000;fill-opacity:1;stroke:none"
       id="flowRoot833">
      <path
         d="m 40.299478,426.50688 0.601563,0.12761 -2.114583,6.70833 H 19.645833 v -0.67448 h 0.929688 q 1.567708,0 2.242187,-1.02083 0.382813,-0.58333 0.382813,-2.69792 v -15.95052 q 0,-2.3151 -0.510417,-2.89843 -0.710937,-0.80209 -2.114583,-0.80209 h -0.929688 v -0.67448 h 11.192708 v 0.67448 q -1.96875,-0.0182 -2.770833,0.36459 -0.783854,0.38281 -1.075521,0.96614 -0.291666,0.58333 -0.291666,2.78906 v 15.53125 q 0,1.51302 0.291666,2.07813 0.21875,0.38281 0.674479,0.5651 0.45573,0.18229 2.84375,0.18229 h 1.804688 q 2.84375,0 3.992187,-0.41927 1.148438,-0.41927 2.096354,-1.47656 0.947917,-1.07552 1.895833,-3.3724 z"
         style="font-style:normal;font-variant:normal;font-weight:normal;font-stretch:normal;font-size:37.33333206px;font-family:'Times New Roman';-inkscape-font-specification:'Times New Roman, ';stroke-width:2.4000001"
         id="path1835" />
      <path
         d="m 47.135416,407.42095 q 0.765625,0 1.294271,0.54687 0.546875,0.52865 0.546875,1.29427 0,0.76563 -0.546875,1.3125 -0.528646,0.54688 -1.294271,0.54688 -0.765625,0 -1.3125,-0.54688 -0.546875,-0.54687 -0.546875,-1.3125 0,-0.76562 0.528646,-1.29427 0.546875,-0.54687 1.330729,-0.54687 z m 1.513021,8.73177 v 13.41666 q 0,1.56771 0.21875,2.09636 0.236979,0.51042 0.674479,0.76562 0.455729,0.25521 1.640625,0.25521 v 0.65625 h -8.111979 v -0.65625 q 1.221354,0 1.640625,-0.23698 0.419271,-0.23698 0.65625,-0.78385 0.255208,-0.54688 0.255208,-2.09636 v -6.43489 q 0,-2.71615 -0.164062,-3.51823 -0.127605,-0.58333 -0.401042,-0.80208 -0.273438,-0.23698 -0.747396,-0.23698 -0.510417,0 -1.239583,0.27344 l -0.255209,-0.65625 5.03125,-2.04167 z"
         style="font-style:normal;font-variant:normal;font-weight:normal;font-stretch:normal;font-size:37.33333206px;font-family:'Times New Roman';-inkscape-font-specification:'Times New Roman, ';stroke-width:2.4000001"
         id="path1837" />
      <path
         d="m 52.039061,418.30376 5.140625,-2.07812 h 0.692708 v 3.90104 q 1.294271,-2.20573 2.588542,-3.08073 1.3125,-0.89323 2.752604,-0.89323 2.515625,0 4.192708,1.96875 2.059896,2.40625 2.059896,6.27083 0,4.32031 -2.479167,7.14583 -2.041666,2.31511 -5.140624,2.31511 -1.348959,0 -2.333334,-0.38281 -0.729166,-0.27344 -1.640625,-1.09375 v 5.08593 q 0,1.71355 0.200521,2.16927 0.21875,0.47396 0.729167,0.7474 0.528646,0.27344 1.895833,0.27344 v 0.67448 h -8.75 v -0.67448 h 0.45573 q 1.002604,0.0182 1.713541,-0.38281 0.346354,-0.20053 0.528646,-0.65625 0.200521,-0.4375 0.200521,-2.26042 v -15.78646 q 0,-1.62239 -0.145834,-2.05989 -0.145833,-0.4375 -0.473958,-0.65625 -0.309896,-0.21875 -0.856771,-0.21875 -0.4375,0 -1.111979,0.2552 z m 5.833333,2.89844 v 6.23437 q 0,2.02344 0.164063,2.66146 0.255208,1.05729 1.239583,1.85938 1.002604,0.80208 2.515625,0.80208 1.822917,0 2.953125,-1.42188 1.476562,-1.85937 1.476562,-5.23177 0,-3.82812 -1.677083,-5.88802 -1.166666,-1.42187 -2.770833,-1.42187 -0.875,0 -1.731771,0.4375 -0.65625,0.32812 -2.169271,1.96875 z"
         style="font-style:normal;font-variant:normal;font-weight:normal;font-stretch:normal;font-size:37.33333206px;font-family:'Times New Roman';-inkscape-font-specification:'Times New Roman, ';stroke-width:2.4000001"
         id="path1839" />
      <path
         d="m 74.716146,422.93397 q -0.01823,3.71875 1.804687,5.83333 1.822917,2.11458 4.283854,2.11458 1.640625,0 2.84375,-0.89322 1.221354,-0.91146 2.041667,-3.09896 l 0.565104,0.36458 q -0.382813,2.4974 -2.223958,4.55729 -1.841146,2.04167 -4.611979,2.04167 -3.007813,0 -5.158854,-2.33333 -2.132813,-2.35157 -2.132813,-6.3073 0,-4.28385 2.1875,-6.67187 2.205729,-2.40625 5.523437,-2.40625 2.807292,0 4.611979,1.85937 1.804688,1.84115 1.804688,4.94011 z m 0,-1.05729 h 7.729166 q -0.09115,-1.60417 -0.382812,-2.26042 -0.45573,-1.02083 -1.367188,-1.60417 -0.893229,-0.58333 -1.877604,-0.58333 -1.513021,0 -2.716146,1.1849 -1.184895,1.16666 -1.385416,3.26302 z"
         style="font-style:normal;font-variant:normal;font-weight:normal;font-stretch:normal;font-size:37.33333206px;font-family:'Times New Roman';-inkscape-font-specification:'Times New Roman, ';stroke-width:2.4000001"
         id="path1841" />
      <path
         d="m 93.346349,416.15272 v 3.75521 q 2.096354,-3.75521 4.302083,-3.75521 1.002604,0 1.658854,0.61979 0.65625,0.60156 0.65625,1.40365 0,0.71093 -0.473958,1.20312 -0.473958,0.49219 -1.130208,0.49219 -0.638021,0 -1.440105,-0.61979 -0.783854,-0.63802 -1.166666,-0.63802 -0.328125,0 -0.710938,0.36458 -0.820312,0.7474 -1.695312,2.46094 v 8.0026 q 0,1.38542 0.346354,2.09635 0.236979,0.49219 0.838542,0.82032 0.601562,0.32812 1.73177,0.32812 v 0.65625 h -8.549478 v -0.65625 q 1.276041,0 1.895833,-0.40104 0.455729,-0.29167 0.638021,-0.92969 0.09115,-0.30989 0.09115,-1.76823 v -6.47135 q 0,-2.91667 -0.127604,-3.46354 -0.109375,-0.56511 -0.4375,-0.82031 -0.309895,-0.25521 -0.783854,-0.25521 -0.565104,0 -1.276041,0.27344 l -0.182292,-0.65625 5.049479,-2.04167 z"
         style="font-style:normal;font-variant:normal;font-weight:normal;font-stretch:normal;font-size:37.33333206px;font-family:'Times New Roman';-inkscape-font-specification:'Times New Roman, ';stroke-width:2.4000001"
         id="path1843" />
      <path
         d="m 111.72135,416.15272 v 5.6875 h -0.60156 q -0.69271,-2.67969 -1.78646,-3.64583 -1.07552,-0.96615 -2.75261,-0.96615 -1.27604,0 -2.05989,0.67448 -0.78386,0.67448 -0.78386,1.49479 0,1.02083 0.58334,1.75 0.5651,0.7474 2.29687,1.58594 l 2.66146,1.29427 q 3.70052,1.80469 3.70052,4.75781 0,2.27865 -1.73177,3.68229 -1.71354,1.38542 -3.84635,1.38542 -1.53125,0 -3.5,-0.54688 -0.60157,-0.18229 -0.98438,-0.18229 -0.41927,0 -0.65625,0.47396 h -0.60156 v -5.96094 h 0.60156 q 0.51042,2.55209 1.95052,3.84636 1.44011,1.29427 3.22656,1.29427 1.25782,0 2.04167,-0.72917 0.80208,-0.74739 0.80208,-1.78646 0,-1.25781 -0.89322,-2.11458 -0.875,-0.85677 -3.51823,-2.16927 -2.64323,-1.3125 -3.46355,-2.36979 -0.82031,-1.03907 -0.82031,-2.625 0,-2.0599 1.40365,-3.44531 1.42187,-1.38542 3.66406,-1.38542 0.98438,0 2.38802,0.41927 0.92969,0.27344 1.23958,0.27344 0.29167,0 0.45573,-0.12761 0.16407,-0.1276 0.38282,-0.5651 z"
         style="font-style:normal;font-variant:normal;font-weight:normal;font-stretch:normal;font-size:37.33333206px;font-family:'Times New Roman';-inkscape-font-specification:'Times New Roman, ';stroke-width:2.4000001"
         id="path1845" />
      <path
         d="m 135.1276,432.66834 v 0.67448 h -10.59115 v -0.67448 h 0.875 q 1.53125,0 2.22396,-0.89323 0.4375,-0.58333 0.4375,-2.80729 v -15.96875 q 0,-1.8776 -0.23698,-2.47916 -0.18229,-0.45573 -0.74739,-0.78386 -0.80209,-0.4375 -1.67709,-0.4375 h -0.875 v -0.67448 h 10.59115 v 0.67448 h -0.89323 q -1.51302,0 -2.20573,0.89323 -0.45573,0.58333 -0.45573,2.80729 v 15.96875 q 0,1.87761 0.23698,2.47917 0.18229,0.45573 0.76563,0.78385 0.78385,0.4375 1.65885,0.4375 z"
         style="font-style:normal;font-variant:normal;font-weight:normal;font-stretch:normal;font-size:37.33333206px;font-family:'Times New Roman';-inkscape-font-specification:'Times New Roman, ';stroke-width:2.4000001"
         id="path1847" />
      <path
         d="m 142.10937,419.68918 q 2.9349,-3.53646 5.59635,-3.53646 1.36719,0 2.35157,0.69271 0.98437,0.67448 1.5677,2.24218 0.40105,1.09375 0.40105,3.35417 v 7.1276 q 0,1.58594 0.2552,2.15105 0.20053,0.45573 0.63803,0.71093 0.45572,0.25521 1.65885,0.25521 v 0.65625 h -8.25781 v -0.65625 h 0.34635 q 1.16667,0 1.6224,-0.34635 0.47396,-0.36459 0.65625,-1.05729 0.0729,-0.27344 0.0729,-1.71355 v -6.83593 q 0,-2.27865 -0.60156,-3.29948 -0.58333,-1.03906 -1.98698,-1.03906 -2.16927,0 -4.32031,2.36979 v 8.80468 q 0,1.69532 0.20052,2.09636 0.25521,0.52864 0.69271,0.78385 0.45573,0.23698 1.82292,0.23698 v 0.65625 h -8.25782 v -0.65625 h 0.36459 q 1.27604,0 1.71354,-0.63802 0.45573,-0.65625 0.45573,-2.47917 v -6.19791 q 0,-3.00781 -0.14584,-3.66406 -0.1276,-0.65625 -0.41927,-0.89323 -0.27343,-0.23698 -0.74739,-0.23698 -0.51042,0 -1.22136,0.27344 l -0.27343,-0.65625 5.03125,-2.04167 h 0.78385 z"
         style="font-style:normal;font-variant:normal;font-weight:normal;font-stretch:normal;font-size:37.33333206px;font-family:'Times New Roman';-inkscape-font-specification:'Times New Roman, ';stroke-width:2.4000001"
         id="path1849" />
      <path
         d="m 181.1927,408.05897 v 8.54948 h -0.67448 q -0.32812,-2.46094 -1.18489,-3.91927 -0.83854,-1.45834 -2.40625,-2.31511 -1.56771,-0.85677 -3.24479,-0.85677 -1.89584,0 -3.13542,1.16667 -1.23958,1.14844 -1.23958,2.625 0,1.13021 0.78385,2.05989 1.13021,1.36719 5.3776,3.64584 3.46355,1.85937 4.72136,2.86198 1.27604,0.98437 1.95052,2.33333 0.69271,1.34896 0.69271,2.82552 0,2.80729 -2.1875,4.84896 -2.16927,2.02344 -5.59636,2.02344 -1.07552,0 -2.02343,-0.16407 -0.56511,-0.0911 -2.35157,-0.65625 -1.76823,-0.58333 -2.24218,-0.58333 -0.45573,0 -0.72917,0.27344 -0.25521,0.27344 -0.38281,1.13021 h -0.67448 v -8.47657 h 0.67448 q 0.47396,2.66146 1.27604,3.99219 0.80208,1.3125 2.44271,2.1875 1.65885,0.875 3.6276,0.875 2.27865,0 3.59115,-1.20312 1.33073,-1.20313 1.33073,-2.84375 0,-0.91146 -0.51042,-1.84115 -0.49219,-0.92969 -1.54948,-1.73177 -0.71094,-0.54688 -3.88281,-2.3151 -3.17188,-1.78646 -4.52084,-2.84375 -1.33072,-1.0573 -2.02343,-2.33334 -0.69271,-1.27604 -0.69271,-2.80729 0,-2.66146 2.04167,-4.57552 2.04166,-1.93229 5.19531,-1.93229 1.96875,0 4.17448,0.96614 1.02083,0.45573 1.4401,0.45573 0.47396,0 0.76563,-0.27343 0.30989,-0.29167 0.49218,-1.14844 z"
         style="font-style:normal;font-variant:normal;font-weight:normal;font-stretch:normal;font-size:37.33333206px;font-family:'Times New Roman';-inkscape-font-specification:'Times New Roman, ';stroke-width:2.4000001"
         id="path1851" />
      <path
         d="m 202.48437,428.09282 h 0.65625 q 0,2.88021 -0.94792,4.19271 -0.92968,1.3125 -2.33333,1.3125 -1.14844,0 -2.20573,-0.85677 -1.05729,-0.875 -1.89583,-4.64844 l -1.56771,-7.07291 -5.43229,12.32291 h -3.44532 l 7.80209,-16.80729 q -0.61979,-3.26302 -1.49479,-4.83073 -0.875,-1.56771 -2.16927,-1.56771 -1.03907,0 -1.82292,0.80209 -0.76563,0.78385 -0.85677,2.44271 h -0.65625 q 0.0547,-2.67969 1.07552,-4.28386 1.02083,-1.62239 2.55208,-1.62239 0.98438,0 1.85938,0.82031 0.89323,0.80208 1.53125,2.77083 0.65625,1.95052 2.02343,8.11198 l 1.29428,5.77865 q 0.78385,3.59114 1.64062,4.8125 0.875,1.20312 2.07813,1.20312 2.04166,0 2.3151,-2.88021 z"
         style="font-style:normal;font-variant:normal;font-weight:normal;font-stretch:normal;font-size:37.33333206px;font-family:'Times New Roman';-inkscape-font-specification:'Times New Roman, ';stroke-width:2.4000001"
         id="path1853" />
      <path
         d="m 218.74478,416.64491 v 10.11718 q 0,2.89844 0.12761,3.55469 0.14583,0.63802 0.4375,0.89323 0.30989,0.25521 0.71093,0.25521 0.56511,0 1.27604,-0.3099 l 0.25521,0.63802 -4.99479,2.0599 h -0.82031 v -3.53646 q -2.15104,2.33333 -3.28125,2.9349 -1.13021,0.60156 -2.38802,0.60156 -1.40365,0 -2.44271,-0.80208 -1.02083,-0.82032 -1.42188,-2.09636 -0.40104,-1.27604 -0.40104,-3.60937 v -7.45573 q 0,-1.1849 -0.25521,-1.64063 -0.2552,-0.45573 -0.76562,-0.69271 -0.49219,-0.2552 -1.80469,-0.23697 v -0.67448 h 5.85156 v 11.17447 q 0,2.33334 0.80209,3.0625 0.82031,0.72917 1.96875,0.72917 0.78385,0 1.76823,-0.49219 1.0026,-0.49218 2.36979,-1.8776 v -9.46094 q 0,-1.42187 -0.52865,-1.91406 -0.51041,-0.51042 -2.15104,-0.54687 v -0.67448 z"
         style="font-style:normal;font-variant:normal;font-weight:normal;font-stretch:normal;font-size:37.33333206px;font-family:'Times New Roman';-inkscape-font-specification:'Times New Roman, ';stroke-width:2.4000001"
         id="path1855" />
      <path
         d="m 227.73177,419.70741 q 1.82291,-1.82292 2.15104,-2.09636 0.82031,-0.69271 1.76823,-1.07552 0.94791,-0.38281 1.8776,-0.38281 1.56771,0 2.69792,0.91146 1.13021,0.91146 1.51302,2.64323 1.8776,-2.1875 3.17187,-2.86198 1.29427,-0.69271 2.66146,-0.69271 1.33073,0 2.35156,0.69271 1.03907,0.67448 1.64063,2.22396 0.40104,1.05729 0.40104,3.3177 v 7.18229 q 0,1.56771 0.23698,2.15105 0.18229,0.40104 0.67448,0.6927 0.49219,0.27344 1.60416,0.27344 v 0.65625 h -8.23958 v -0.65625 h 0.34636 q 1.07552,0 1.67708,-0.41927 0.41927,-0.29167 0.60156,-0.92969 0.0729,-0.30989 0.0729,-1.76823 v -7.18229 q 0,-2.04166 -0.49219,-2.8802 -0.71094,-1.16667 -2.27864,-1.16667 -0.96615,0 -1.95053,0.49219 -0.96614,0.47395 -2.35156,1.78645 l -0.0365,0.20052 0.0365,0.78386 v 7.96614 q 0,1.71355 0.18229,2.13282 0.20052,0.41927 0.72917,0.71093 0.52865,0.27344 1.80469,0.27344 v 0.65625 h -8.44011 v -0.65625 q 1.38542,0 1.89584,-0.32812 0.52864,-0.32813 0.72916,-0.98438 0.0911,-0.30989 0.0911,-1.80469 v -7.18229 q 0,-2.04166 -0.60156,-2.93489 -0.80209,-1.16667 -2.24219,-1.16667 -0.98438,0 -1.95052,0.52865 -1.51302,0.80208 -2.33333,1.80468 v 8.95052 q 0,1.64063 0.21875,2.13282 0.23697,0.49218 0.67447,0.74739 0.45573,0.23698 1.82292,0.23698 v 0.65625 h -8.25781 v -0.65625 q 1.14844,0 1.60417,-0.23698 0.45572,-0.25521 0.6927,-0.78385 0.23698,-0.54688 0.23698,-2.09636 v -6.3802 q 0,-2.75261 -0.16406,-3.55469 -0.1276,-0.60156 -0.40104,-0.82031 -0.27344,-0.23698 -0.7474,-0.23698 -0.51041,0 -1.22135,0.27344 l -0.27344,-0.65625 5.03125,-2.04167 h 0.78386 z"
         style="font-style:normal;font-variant:normal;font-weight:normal;font-stretch:normal;font-size:37.33333206px;font-family:'Times New Roman';-inkscape-font-specification:'Times New Roman, ';stroke-width:2.4000001"
         id="path1857" />
      <path
         d="m 262.58593,416.15272 v 5.6875 h -0.60157 q -0.6927,-2.67969 -1.78645,-3.64583 -1.07552,-0.96615 -2.75261,-0.96615 -1.27604,0 -2.05989,0.67448 -0.78386,0.67448 -0.78386,1.49479 0,1.02083 0.58334,1.75 0.5651,0.7474 2.29687,1.58594 l 2.66146,1.29427 q 3.70052,1.80469 3.70052,4.75781 0,2.27865 -1.73177,3.68229 -1.71354,1.38542 -3.84636,1.38542 -1.53125,0 -3.5,-0.54688 -0.60156,-0.18229 -0.98437,-0.18229 -0.41927,0 -0.65625,0.47396 h -0.60156 v -5.96094 h 0.60156 q 0.51042,2.55209 1.95052,3.84636 1.4401,1.29427 3.22656,1.29427 1.25782,0 2.04167,-0.72917 0.80208,-0.74739 0.80208,-1.78646 0,-1.25781 -0.89323,-2.11458 -0.875,-0.85677 -3.51823,-2.16927 -2.64322,-1.3125 -3.46354,-2.36979 -0.82031,-1.03907 -0.82031,-2.625 0,-2.0599 1.40365,-3.44531 1.42187,-1.38542 3.66406,-1.38542 0.98437,0 2.38802,0.41927 0.92969,0.27344 1.23958,0.27344 0.29167,0 0.45573,-0.12761 0.16406,-0.1276 0.38281,-0.5651 z"
         style="font-style:normal;font-variant:normal;font-weight:normal;font-stretch:normal;font-size:37.33333206px;font-family:'Times New Roman';-inkscape-font-specification:'Times New Roman, ';stroke-width:2.4000001"
         id="path1859" />
    </g>
    <path
       style="fill:#000000;fill-opacity:1;stroke:none;stroke-width:0.9855842px;stroke-linecap:butt;stroke-linejoin:miter;stroke-opacity:1"
       d="M 94.541016 37.037109 C 96.595938 40.119493 97.155925 42.715645 97.304688 44.580078 C 105.94747 49.996928 112.67126 57.438079 119.48438 60.408203 C 124.52 62.603466 130.67544 66.665644 130.21094 72.634766 C 129.95645 75.905002 127.94727 78.947266 127.94727 78.947266 C 127.94727 78.947266 132.83508 81.527749 135.66992 85.337891 C 138.92827 89.717191 139.11555 93.957807 137.51367 97.660156 C 136.40426 100.2243 134.76953 100.78125 134.76953 100.78125 C 134.76953 100.78125 143.10598 105.22209 145.5957 110.8125 C 148.0015 116.21435 147.38246 123.02556 143.55273 127.53125 C 136.13333 136.26018 116.57941 137.27641 102.45117 137.02734 C 88.738997 136.78572 70.633172 136.26151 62.236328 128.4668 C 58.11269 124.63885 56.526955 121.37236 57.238281 115.79102 C 58.503512 105.86348 67.902344 100.78125 67.902344 100.78125 C 67.902344 100.78125 65.864312 99.266151 64.357422 96.048828 C 63.006861 93.165313 63.554233 90.032528 65.123047 87.261719 C 67.73667 82.645555 76.091797 78.947266 76.091797 78.947266 C 76.091797 78.947266 74.95288 76.707468 74.5625 74.083984 C 74.010413 70.373849 75.474186 68.37298 77.787109 65.419922 C 83.182317 58.53162 97.921875 57.534679 97.921875 52.076172 C 97.921875 51.179115 98.014119 49.500357 97.314453 47.298828 C 96.490184 53.099881 80.43332 54.373153 74.455078 62.005859 C 71.824398 65.364612 70.157226 67.641486 70.785156 71.861328 C 71.229171 74.845227 72.525391 77.392578 72.525391 77.392578 C 72.525391 77.392578 63.02347 81.599279 60.050781 86.849609 C 58.266436 90.001093 57.643578 93.564103 59.179688 96.84375 C 60.893597 100.50305 63.212891 102.22461 63.212891 102.22461 C 63.212891 102.22461 52.523039 108.00741 51.083984 119.29883 C 50.274935 125.64696 52.075466 129.36102 56.765625 133.71484 C 66.316056 142.58041 86.911815 143.17824 102.50781 143.45312 C 118.57704 143.73621 140.81715 142.58052 149.25586 132.65234 C 153.61172 127.52768 154.31444 119.78072 151.57812 113.63672 C 148.74635 107.27834 139.26562 102.22461 139.26562 102.22461 C 139.26562 102.22461 141.12489 101.59218 142.38672 98.675781 C 144.20867 94.464783 143.99505 89.643035 140.28906 84.662109 C 137.06476 80.328541 131.50391 77.392578 131.50391 77.392578 C 131.50391 77.392578 133.79063 73.932437 134.08008 70.212891 C 134.60839 63.423725 127.60634 58.803472 121.87891 56.306641 C 113.58365 52.690351 105.40572 43.245475 94.541016 37.037109 z "
       id="path4547"
       transform="matrix(0.26458333,0,0,0.26458333,0,231.30229)" />
    <g
       id="text4565"
       style="font-style:normal;font-weight:normal;font-size:10.58333302px;line-height:1.25;font-family:sans-serif;letter-spacing:0px;word-spacing:0px;fill:#000000;fill-opacity:1;stroke:none;stroke-width:0.63499999"
       aria-label="λ"
       transform="matrix(0.41666667,0,0,0.41666667,1.9999998,192.9328)">
      <path
         inkscape:connector-curvature="0"
         id="path1862"
         style="font-style:normal;font-variant:normal;font-weight:bold;font-stretch:normal;font-size:50.79999924px;font-family:'Times New Roman';-inkscape-font-specification:'Times New Roman, Bold';fill:#000000;fill-opacity:1;stroke:none;stroke-width:0.63499999;stroke-opacity:1"
         d="m 56.378516,170.14049 h -7.218164 l 10.765234,-23.58926 -0.347266,-1.31465 q -0.520898,-1.95957 -1.413867,-3.47265 -0.868164,-1.5379 -2.728516,-1.5379 -3.373437,0 -3.894335,3.74551 h -0.917774 q 0.446484,-8.23515 4.812109,-8.23515 3.497461,0 4.886524,5.55625 l 4.960937,19.69492 q 0.744141,2.95176 1.661914,3.96875 0.942578,0.99219 2.480469,0.99219 1.513086,0 2.530078,-0.94258 1.041797,-0.94258 1.091406,-2.67891 h 0.917774 q 0.04961,0.79375 0.04961,1.16582 0,3.02617 -1.16582,5.01055 -1.165821,1.95957 -3.547071,1.95957 -2.009179,0 -2.976562,-1.24024 -0.967383,-1.24023 -1.860351,-4.81211 l -2.083594,-8.16074 z" />
    </g>
  </g>
</svg>
